<svg class="tw-h-s24 tw-max-h-s24" xmlns="http://www.w3.org/2000/svg" fill="none" viewBox="0 0 72 44"><rect width="71" height="43" x=".5" y=".5" fill="#fff" stroke="#dcdcdc" rx="5.5"></rect><path fill="#253b80" fill-rule="evenodd" d="M20.37 27.94h-3.2c-.22 0-.41.14-.44.34l-1.3 7.31c-.02.14.1.27.27.27h1.52c.22 0 .4-.14.44-.33l.35-1.97c.04-.2.22-.34.44-.34h1.01q3.17 0 3.65-2.7.2-1.2-.41-1.85-.7-.72-2.33-.73m.37 2.67c-.18 1.03-1.06 1.03-1.9 1.03h-.49l.34-1.91q.05-.19.26-.2h.23c.57 0 1.12 0 1.4.29q.25.25.16.8m9.2-.03H28.4q-.21.02-.26.2l-.07.38-.1-.14c-.34-.42-1.08-.57-1.82-.57a3.4 3.4 0 0 0-3.42 2.75c-.15.8.06 1.56.57 2.1.47.49 1.14.7 1.93.7 1.36 0 2.12-.8 2.12-.8l-.07.39c-.02.14.1.27.27.27h1.38c.22 0 .4-.14.44-.33l.82-4.68c.03-.14-.1-.27-.26-.27m-2.14 2.66c-.15.78-.85 1.3-1.73 1.3q-.68 0-1.03-.37a1 1 0 0 1-.24-.96c.14-.77.84-1.31 1.71-1.31q.67 0 1.03.37.35.39.26.97m8.75-2.66h1.54c.22 0 .34.22.22.37l-5.12 6.6a.5.5 0 0 1-.36.16h-1.54c-.22 0-.35-.22-.22-.37l1.6-2-1.7-4.45c-.06-.15.07-.31.25-.31h1.51q.32.02.43.28l.9 2.68 2.13-2.79q.13-.16.36-.17" clip-rule="evenodd"></path><path fill="#179bd7" fill-rule="evenodd" d="m53.25 35.59 1.31-7.45c.02-.11.14-.2.27-.2h1.48c.16 0 .28.13.26.28l-1.3 7.3c-.03.2-.22.34-.44.34h-1.32c-.16 0-.29-.13-.26-.27m-10.06-7.65H40c-.22 0-.4.14-.44.34l-1.3 7.31c-.02.14.1.27.27.27h1.64c.16 0 .29-.1.31-.23l.37-2.07c.03-.2.22-.34.44-.34h1q3.17 0 3.65-2.7.21-1.2-.4-1.85c-.46-.48-1.27-.73-2.34-.73m.37 2.67c-.17 1.03-1.05 1.03-1.9 1.03h-.48l.34-1.91q.05-.19.26-.2H42c.58 0 1.12 0 1.4.29q.26.25.16.8m9.2-.03h-1.53q-.23.02-.27.2l-.06.38-.11-.14c-.33-.42-1.07-.57-1.81-.57a3.4 3.4 0 0 0-3.42 2.75c-.15.8.06 1.56.57 2.1q.72.72 1.93.7c1.36 0 2.12-.8 2.12-.8l-.07.39c-.03.14.1.27.26.27h1.38c.22 0 .4-.14.44-.33l.83-4.68c.03-.14-.1-.27-.26-.27m-2.14 2.66c-.15.78-.84 1.3-1.73 1.3q-.67 0-1.03-.37a1 1 0 0 1-.24-.96c.14-.77.85-1.31 1.72-1.31q.67 0 1.02.37.36.39.26.97" clip-rule="evenodd"></path><path fill="#253b80" d="m32.2 25.33.4-2.23-.87-.02h-4.19l2.9-16.43q.03-.08.09-.13t.16-.05h7.05q3.53 0 4.8 1.29.6.6.77 1.28.2.72 0 1.78v.5l.4.2q.5.24.8.55.5.52.65 1.3.14.8-.1 1.88a6 6 0 0 1-.86 2.13q-.55.83-1.37 1.34-.8.51-1.85.75-1.03.24-2.31.24h-.55q-.62 0-1.08.35-.46.36-.56.89l-.04.2-.7 3.92-.03.15q0 .06-.04.08l-.07.03z"></path><path fill="#179bd7" d="m44.08 10.92-.07.37c-.93 4.26-4.12 5.73-8.18 5.73h-2.07c-.5 0-.92.32-1 .76l-1.05 5.99-.3 1.7c-.06.28.2.54.52.54h3.67c.43 0 .8-.28.87-.66l.04-.17.69-3.9.04-.22c.07-.39.44-.67.88-.67h.55c3.55 0 6.34-1.29 7.15-5.01.34-1.56.17-2.86-.73-3.77q-.42-.4-1-.69"></path><path fill="#222d65" d="M43.1 10.58a8 8 0 0 0-.9-.18q-.84-.12-1.82-.12h-5.53a1 1 0 0 0-.38.07.8.8 0 0 0-.5.6l-1.17 6.63-.04.2c.08-.44.5-.76 1-.76h2.07c4.06 0 7.25-1.47 8.18-5.73l.07-.37a5 5 0 0 0-.97-.35"></path><path fill="#253b80" d="M33.98 10.94a.8.8 0 0 1 .49-.59 1 1 0 0 1 .38-.07h5.53a13 13 0 0 1 2.73.3l.2.05q.42.12.77.3c.28-1.58 0-2.65-.95-3.62-1.06-1.07-2.96-1.53-5.39-1.53H30.7c-.5 0-.92.32-1 .76l-2.94 16.6c-.06.33.23.63.6.63h4.35l1.1-6.19z"></path></svg>